<?xml version="1.0" standalone="no"?>
<!DOCTYPE svg PUBLIC "-//W3C//DTD SVG 20010904//EN"
 "http://www.w3.org/TR/2001/REC-SVG-20010904/DTD/svg10.dtd">
<svg version="1.0" xmlns="http://www.w3.org/2000/svg"
 width="500.000000pt" height="500.000000pt" viewBox="0 0 500.000000 500.000000"
 preserveAspectRatio="xMidYMid meet">

<g transform="translate(0.000000,500.000000) scale(0.100000,-0.100000)"
fill="#000000" stroke="none">
<path d="M1912 2686 c-33 -15 -52 -49 -52 -92 0 -17 -5 -24 -20 -24 -16 0 -20
-7 -20 -35 0 -31 3 -35 25 -35 l25 0 0 -125 0 -125 35 0 35 0 0 125 0 125 45
0 c45 0 45 0 45 35 0 35 0 35 -46 35 -44 0 -45 1 -42 28 3 25 7 27 47 28 40 0
46 4 54 28 5 15 6 30 3 33 -13 13 -103 13 -134 -1z"/>
<path d="M3078 2689 c-26 -15 -23 -65 3 -80 34 -18 69 3 69 40 0 42 -36 62
-72 40z"/>
<path d="M2080 2445 c0 -151 10 -179 70 -195 45 -12 100 5 119 37 9 16 10 15
11 -9 0 -26 3 -28 40 -28 l41 0 -3 158 -3 157 -37 3 -38 3 0 -98 c0 -110 -11
-143 -53 -157 -53 -19 -61 -3 -67 130 l-5 119 -37 3 -38 3 0 -126z"/>
<path d="M2450 2410 l0 -160 40 0 40 0 0 99 c0 116 15 146 71 146 29 0 34 4
40 32 4 23 2 33 -8 37 -27 11 -50 6 -76 -14 -25 -20 -25 -20 -30 0 -4 15 -14
20 -41 20 l-36 0 0 -160z"/>
<path d="M2700 2410 l0 -160 34 0 33 0 5 105 c5 119 18 145 73 145 50 0 55
-13 55 -137 l0 -113 40 0 40 0 0 115 c0 166 -20 205 -109 205 -28 0 -48 -8
-70 -26 l-31 -26 0 26 c0 23 -4 26 -35 26 l-35 0 0 -160z"/>
<path d="M3070 2410 l0 -160 35 0 35 0 0 160 0 160 -35 0 -35 0 0 -160z"/>
</g>
</svg>
